<svg xmlns="http://www.w3.org/2000/svg" width="108" height="30" viewBox="0 0 108 30" role="img" aria-label="LINKEDIN">
  <title>LINKEDIN</title>
  <rect width="108" height="30" rx="5" fill="#3D7FFF"/>
  <g transform="translate(10 7) scale(0.6667)"><path fill="#FFFFFF" d="M19 3a2 2 0 0 1 2 2v14a2 2 0 0 1-2 2H5a2 2 0 0 1-2-2V5a2 2 0 0 1 2-2zm-.5 15.5v-5.3a3.26 3.26 0 0 0-3.26-3.26c-.85 0-1.84.52-2.32 1.3v-1.11h-2.79v8.37h2.79v-4.93c0-.77.62-1.4 1.39-1.4a1.4 1.4 0 0 1 1.4 1.4v4.93zM6.88 8.56a1.68 1.68 0 0 0 1.68-1.68c0-.93-.75-1.69-1.68-1.69a1.69 1.69 0 0 0-1.69 1.69c0 .93.76 1.68 1.69 1.68m1.39 9.94v-8.37H5.5v8.37z"/></g>
  <text x="32" y="19.5" fill="#FFFFFF" font-family="'Segoe UI',Helvetica,Arial,sans-serif" font-size="12" font-weight="700" letter-spacing="0.8" textLength="66" lengthAdjust="spacing">LINKEDIN</text>
</svg>
